<svg xmlns="http://www.w3.org/2000/svg" width="51" height="41" viewBox="0 0 51 41"><path fill="#FFF" fill-rule="nonzero" d="M38.83-.03c-.42.7-.57 1.53-.23 2.2.89.6 5.4 1.69 5.02 3.17l-.16.55a4.58 4.58 0 0 0-2.97-.96c-.51.1-1.03.33-1.53.35-.64 0-1.2-.16-1.7-.45.35.95 1.59 1.65 2.35 1.53 1.2-.24 2.5.4 3.38.7-.54 1.48-2.34.79-2.34.79L27.69 4.87l-2.12-1.54-1.85 1.88 9.45 3.1-12.75.28-3.17-1.32-4.33 2.5 19.43 1.42-5.97 6.31h10.54c2.06-1.67 6.7-5.44 6.76-5.4 1.37 3.19 3.54 2.03 5.19.17.48-.54 1 1.31 1.28-1.7l.18-.32c-1.91-.82-5.16.6-3.38-1.92.55-.77 2.21-.56 3.92.43.06-1.62-.11-4.5-1.64-5.14-1.58-.66-3.62-.59-4.4.28-1.05-1.8-4.2-2.02-5.44-2.2a3.8 3.8 0 0 1-.56-1.73zm-20 6.3l-.49.42 1.72.73 1.15-1.16h-2.38zM48.2 8.84c.7.51.74.63 1.2.65.18-.1.55-.5.2-.57l-1.17-.24a.2.2 0 0 0-.23.16zm-33.83 1.92l-.63.56h2.38l.64-.56h-2.39zm-4.17 1.44l-1.27 1.63h1.68l.58-.68h4.52l-.84.74h1.7l1.7-1.63-8.07-.06zm1.66 1.7L.8 26.6l2.44-.48L13.72 13.9h-1.85zm13.47 4.7L11.38 33.35l-1.77.46s-1.38 3.16-2 6.9c.8.44 1.84-.84 1.84-.84s-.12 1.39.7 1.03c1.5-3.03 3.18-6.19 3.18-6.19L30.3 21.78l2.23.59 2.94.78-6.64 6.24-1.2-1.29s-3.64 4.05-5.02 7.04c.44.5 2.16-.82 2.16-.82s-.57 1.03.2 1c1.9-1.78 3.16-3.17 3.16-3.17l14.1-10.47-5.12-3.08H25.34z"/></svg>