<svg xmlns="http://www.w3.org/2000/svg" width="44" height="35" viewBox="0 0 44 35"><g fill="#FFF"><path d="M27.19 16.62l1.1-1.1 4.31 4.33-1.1 1.1zM39.53 1.66c-.37 0-.67.3-.67.67v22.69c0 .37.3.67.67.67h.88c.29 0 .57.03.85.08h.04c.27.05.52.13.76.22l.07.02c.24.1.46.2.67.34l.08.04c.2.14.4.29.58.45l.05.04V4.76c-.14-1.8-1.41-3.1-3.1-3.1h-.88z"/><path d="M39.78 34.21a3.88 3.88 0 0 0 3.73-3.84c-.15-1.85-1.42-3.13-3.1-3.13h-.88c-1.23 0-2.22-1-2.22-2.22V5.54h-2.72L32.5 8.33a.77.77 0 0 1-1.17.08l-2.87-2.87H26.4a6.93 6.93 0 0 1-2.24 5.92l3 3 .55-.55c.3-.3.8-.3 1.1 0l5.42 5.42c.3.3.3.8 0 1.1l-2.2 2.19a.77.77 0 0 1-1.1 0l-5.41-5.42c-.3-.3-.3-.8 0-1.1l.55-.54-3.18-3.18a6.98 6.98 0 0 1-10.36-6.85H6.3v19.49c0 1.22-1 2.22-2.22 2.22H3.2c-.63 0-1.2.18-1.69.5A3.43 3.43 0 0 0 .1 30.4a3.87 3.87 0 0 0 3.87 3.82h4.95l1.34-2.68a.78.78 0 0 1 1.24-.2l2.87 2.88h17.87l1.32-1.98c.2-.31.6-.43.95-.29l5.27 2.26zM9.95 20.04a.77.77 0 0 1-1.1 0c-.3-.3-.3-.8 0-1.1l1.4-1.39-1.4-1.39a.77.77 0 1 1 1.1-1.1l1.39 1.4 1.39-1.4a.77.77 0 1 1 1.1 1.1l-1.4 1.4 1.4 1.38a.77.77 0 1 1-1.1 1.1l-1.4-1.4-1.38 1.4zm2.7 3.9c-.1.05-.21.07-.31.07a.78.78 0 0 1-.72-.47 33 33 0 0 1-.28-.69c-.12-.28-.22-.53-.29-.65a.78.78 0 0 1 1.35-.77c.12.2.23.49.37.84l.28.66c.17.4-.01.85-.4 1.02zm3.7 4.59a.77.77 0 0 1-1.09.07c-.8-.7-1.51-1.48-2.11-2.32a.78.78 0 0 1 1.26-.9c.53.74 1.16 1.43 1.87 2.05.32.28.36.77.07 1.1zm5.37 2.4a.78.78 0 0 1-.92.6c-1-.21-2-.6-2.98-1.13a.78.78 0 0 1 .75-1.36 9 9 0 0 0 2.55.97c.42.08.69.5.6.91zm5.35-.28a10.4 10.4 0 0 1-3.16.97.78.78 0 0 1-.11-1.54c.86-.13 1.73-.4 2.59-.82a.77.77 0 1 1 .68 1.4zm3.85-2.91c-.02.02-.44.53-1.2 1.17a.77.77 0 0 1-1.1-.1.77.77 0 0 1 .1-1.09 9.65 9.65 0 0 0 1.02-.98.78.78 0 0 1 1.18 1z"/><path d="M2.2 12.74c.27.27.3.7.07 1.01L.1 16.65v10.23l.09-.07c.16-.15.34-.29.52-.4l.12-.08c.2-.12.42-.23.64-.32.03 0 .06-.02.08-.03.24-.09.5-.16.75-.2l.05-.01c.27-.05.56-.08.85-.08h.88c.37 0 .67-.3.67-.67V2.33c0-.37-.3-.67-.67-.67H3.2C1.5 1.66.23 2.96.1 4.82v5.82l2.1 2.1zM14.23 4.95c-.06.23-.1.45-.13.66v.04a5.43 5.43 0 0 0 9.94 3.6 5.47 5.47 0 0 0-.07-5.98 5.43 5.43 0 0 0-9.74 1.68zm6.02-1.74c0 .43-.34.78-.77.78a2.33 2.33 0 0 0 0 4.65.78.78 0 0 1 0 1.55 3.88 3.88 0 0 1 0-7.75c.43 0 .77.34.77.77z"/></g></svg>
