<svg xmlns="http://www.w3.org/2000/svg" width="47" height="47" viewBox="0 0 47 47"><g fill="#FFF"><path d="M31.52 24.7c-.75-.22-1.26-.78-1.21-1.39 0-.6.51-1.16 1.2-1.35.24-.05.38-.33.33-.56-.23-1.02-.6-2-1.16-2.89-.14-.23-.42-.28-.65-.18-.8.46-1.72.32-2.14-.28-.33-.47-.28-1.17.14-1.72.09-.1.09-.24.09-.38a.75.75 0 0 0-.19-.32 8.85 8.85 0 0 0-2.98-1.26c-.14-.05-.23 0-.37.05-.1.04-.19.18-.19.28-.18.83-.74 1.4-1.44 1.35-.65 0-1.26-.56-1.4-1.4a.75.75 0 0 0-.18-.33c-.1-.04-.24-.09-.38-.04a9.8 9.8 0 0 0-2.98 1.2c-.09.1-.18.2-.23.33-.05.14 0 .28.1.38.41.55.46 1.25.13 1.72-.42.6-1.4.74-2.19.28a.5.5 0 0 0-.65.14 9.09 9.09 0 0 0-1.2 2.93c-.05.23.09.51.36.56.8.19 1.3.8 1.3 1.44 0 .66-.55 1.22-1.3 1.4a.51.51 0 0 0-.37.56 9.54 9.54 0 0 0 1.21 2.93c.14.24.42.28.65.14.8-.46 1.77-.32 2.2.28.32.47.27 1.17-.15 1.73-.09.09-.09.23-.09.37.05.14.1.23.23.32.93.61 1.96 1.03 3.03 1.26h.1c.23 0 .41-.14.46-.37.19-.75.8-1.26 1.4-1.26.6 0 1.16.51 1.4 1.26.04.23.32.42.55.33a8.85 8.85 0 0 0 2.98-1.26c.1-.1.19-.19.19-.33a.36.36 0 0 0-.1-.37 1.66 1.66 0 0 1-.13-1.72c.42-.6 1.35-.75 2.14-.28a.5.5 0 0 0 .65-.14c.56-.89.98-1.91 1.21-2.94 0-.14-.14-.37-.37-.46zm-8.57 1.31a2.7 2.7 0 1 1 0-5.4 2.7 2.7 0 0 1 0 5.4zM21.27.4h3.21v5.36h-3.2zM40.7 19.22h5.35v3.2H40.7zM.27 19.22h5.36v3.2H.27zM5.56 7.48l2.27-2.27L11.62 9l-2.27 2.27zM34.66 8.95l3.8-3.79 2.26 2.27-3.79 3.79z"/><path d="M22.9 8.32A15.1 15.1 0 0 0 7.77 23.45a15.3 15.3 0 0 0 7.82 13.27v4.29c0 .28.28.5.51.5h.28v2.06c0 .28.28.51.52.51h.88v1.58c0 .28.28.52.51.52h9.27c.28 0 .51-.28.51-.52v-1.58h.8c.27 0 .5-.28.5-.51v-2.05h.38c.28 0 .51-.28.51-.51v-4.29a15.18 15.18 0 0 0 7.82-13.27A15.23 15.23 0 0 0 22.9 8.32zm-4.8 26.54l-.55-.28a12.35 12.35 0 0 1 5.36-23.52c6.89 0 12.33 5.54 12.33 12.4 0 4.7-2.74 9.07-7.03 11.12l-.51.28a.51.51 0 0 0-.28.47v3.49h-9.08v-3.5c0-.18-.1-.37-.23-.46z"/></g></svg>
