<svg xmlns="http://www.w3.org/2000/svg" width="44" height="42" viewBox="0 0 44 42"><path fill="#FFF" d="M36.57 22.9l5.73-8.25-8.03-1.08L37.9 3.09 27.02 9.3 24.23.07l-4.8 8.55L10.4-.04l2.06 11.96C8.5 11.3 4.68 10.7.73 10.08l8.44 9.86c-2.5 2.3-4.98 4.57-7.51 6.92l9.67 2.17-3.53 7.88 4.4-1.17s2-6.13 2.94-7.58c.43-.65.47-1.25.33-1.99-.6-3.05-1.14-6.1-1.7-9.16-.04-.17-.05-.3.13-.41 2.15-1.5 3.25-1.9 6.6-4.28l4.65 5.34-1.6 1.46c-.04.04-.14.06-.2.04-.59-.17-1.17-.34-1.75-.53-.7-.65-1.23-1.37-1.78-1.92-.15.57-.3 1.1-.43 1.65.8.98 1 1.27 1.51 1.77.1.1.17.27.17.4.13 2.83.05 5.6.19 8.04l.9.25c-.06-3.05-.11-6.06-.2-9.08.2 0 .37.09.51.35 1.76 2.88 3.34 5.72 4.91 8.35l.8-.46c-.14.41-.6.98-.84 1.33-.84 1.32-2.24 1.97-3.4 2.76-1.4 2.21-2.52 4.48-3.42 6.05l1.33 3.35c.03.01 2.34-3.5 3.48-5.29l5.66 5.02.42-10.83 12 1.03-6.84-8.5zm-14.7-10.47a507.5 507.5 0 0 1 3.44-2.12l1.67 2.94-2.88 1.78-2.24-2.6zm4.57 5.28c-.56-.66-1.12-1.3-1.72-1.98 1-.6 1.98-1.21 2.98-1.83l1.53 2.68c-1.5.94-3 1.85-4.46 2.75 0-.02-.02-.03-.04-.04.57-.52 1.13-1.03 1.71-1.58zm-2.34 3.11l5.5-3.38 1.62 2.84-5.5 3.38-1.62-2.84zm3.62 6.35l-1.53-2.7 5.16-3.18 1.53 2.7-5.16 3.18z"/></svg>
