<svg xmlns="http://www.w3.org/2000/svg" width="44" height="33" viewBox="0 0 44 33"><g fill="#FFF"><path d="M35.5 11.48c-1.72.13-2.68 1.03-2.89 2.67-.2 1.65-1.3 2.98-3.29 4.01a7.02 7.02 0 0 0-1.13 4.94c.07.2.17.3.3.3.21 0 2.78-.92 3.71 1.75.62 1.79.69 3.67.2 5.66 1.1 1.1 3.06 1.5 5.87 1.23 3.22-.4 4.9-1.13 5.04-2.16.2-1.54-.62-6.68-1.14-7.7-.5-1.04-3.29-4.74-3.6-6.28a15.7 15.7 0 0 1-.3-3.09c.04-.89-.37-1.33-1.24-1.33H35.5z"/><path d="M25.52 21.25c.51-.31.61-.31.61 0v1.64c-.34.55-1.71.9-4.11 1.03-2.4.14-4.05-.75-4.94-2.67-.27-.96-.48-1.75-.61-2.37-.2-.92-1.24-1.75-2.47-1.75-.82 0-1.48-.07-1.96-.2-.61-.2-.92-.62-.92-1.24v-2.57H1.86c.14-1.57-.24-2.47-1.13-2.67v-.93h-.3V8.8H.21V5.2h.2V4.6h.31V3.35h.72V1.4c.07-.2.31-.3.72-.3-.07-.15.07-.22.41-.22l4.94 2.47h10.9a2.87 2.87 0 0 0 1.95-1.23h7.2c.55 1.71 1.1 2.74 1.65 3.08l2.36-2.26c.55-.41 1.1-.41 1.65 0 .55.48.65 1.03.3 1.65l-2.46 2.36c.89 1.1 2.6 1.89 5.14 2.37 0 .13-.1.2-.3.2-2.54.35-3.92 1.13-4.12 2.37-.31 1.85-1.85 4.42-3.7 5.04-.62-1.17-1.27-1.82-1.96-1.96H21.4c-1.1.14-1.88.93-2.36 2.37-.55 3.08.51 4.6 3.19 4.52 1.85-.2 2.94-.4 3.29-.61zM16.26 6.9c0 .6.48 1.08 1.08 1.08h5.81c.82 0 1.23-.34 1.23-1.03 0-.75-.4-1.13-1.23-1.13h-5.8c-.6 0-1.09.48-1.09 1.08zm0 3.96c0 .62.5 1.13 1.13 1.13h5.97c.75 0 1.16-.38 1.23-1.13-.07-.75-.55-1.13-1.44-1.13H17.4c-.62 0-1.13.5-1.13 1.13z"/></g></svg>
