<svg xmlns="http://www.w3.org/2000/svg" width="39" height="39" viewBox="0 0 39 39"><path fill="#FFF" d="M15.67.84a34.91 34.91 0 0 1 8.56 4.7l3.84 6.52A32.62 32.62 0 0 0 0 1.16v1.51a31.02 31.02 0 0 1 23.64 7.14l3.41 7.84A28.37 28.37 0 0 0 0 5.43v1.52c7.97-1.1 15.8 1.49 21.51 6.62L24 20.65a24.16 24.16 0 0 0-24-10.98v1.52a22.6 22.6 0 0 1 19.96 6.7l1.67 6.77A20.11 20.11 0 0 0 0 13.76v1.53a18.56 18.56 0 0 1 18.55 7.2l.38 5.91A16.36 16.36 0 0 0 0 17.84v1.55a14.81 14.81 0 0 1 15.87 6.21l.48 4.63c1.88-.5 3.83-1.06 5.53-1.68 1.55-.56 2.9-1.17 3.76-1.77.43-.3.73-.6.9-.85.16-.25.2-.42.17-.62l-.1-.65 11.04-3.19A36.23 36.23 0 0 0 19.42.84h-3.75zM38.13 22.9l-3.24.94a6.04 6.04 0 0 1-1.32 4.19 14.62 14.62 0 0 1-5.02 3.89c-3.65 1.88-8.42 3.2-13.25 3.86l.36 1.32c5.53-.62 11.54-1.78 15.96-3.91 2.46-1.2 4.4-2.67 5.54-4.46a7.63 7.63 0 0 0 .97-5.83zm-4.71 1.36l-5.24 1.51c-.06.35-.2.69-.38.98a4.8 4.8 0 0 1-1.3 1.26c-1.06.75-2.5 1.38-4.1 1.96-2.58.93-5.52 1.7-8.02 2.35l.53 2c4.76-.63 9.48-1.95 12.95-3.74 2-1.03 3.57-2.22 4.51-3.46a4.47 4.47 0 0 0 1.05-2.86zM12.33 30.5l-2.66.71.66 2.47a2.26 2.26 0 0 1 .96 3.6l.38 1.4 2.66-.7-2-7.48zm-2.77 4.55a.78.78 0 0 0-.33.07l-6.1 1.63a2.46 2.46 0 0 1 .37 1.46l6.12-1.64c.4-.03.7-.35.7-.76a.75.75 0 0 0-.76-.76zm-8.53 2.03a.96.96 0 0 0-.98.97c0 .55.43.98.98.98s.97-.43.97-.98a.96.96 0 0 0-.97-.97z"/></svg>
