<svg xmlns="http://www.w3.org/2000/svg" width="38" height="38" viewBox="0 0 38 38"><path fill="#FFF" d="M.62.42c4.67 8.8 11.17 15.85 18.2 22.93l.28.3v-.01l5.21 5.19a39.92 39.92 0 0 1-4.7 3.16l2.24 2.23 5.38-5.38a28.3 28.3 0 0 1 8.16 8.29l2.2-2.2c-3.33-2.15-6.25-4.72-8.3-8.14l5.4-5.4-2.24-2.23a26.9 26.9 0 0 1-3.1 4.74 297.08 297.08 0 0 0-10.19-9.83l-.05-.04C13.46 8.9 7.58 4.29.62.42zm36.97 0A96.93 96.93 0 0 0 20.2 13.04l1.79 1.7 4.45-4.46 1.03 1.04-4.42 4.42 1.93 1.81C29.82 12.31 34.19 6.83 37.59.42zm-25.82 9.86L27.5 26c-.35.35-.7.7-1.05 1.02l-15.7-15.7 1.03-1.03zm-6 8.88l-2.24 2.23 5.4 5.4c-2.06 3.42-4.98 5.99-8.3 8.14l2.2 2.2a28.3 28.3 0 0 1 8.15-8.3l5.38 5.4 2.24-2.24c-1.64-.95-3.22-2-4.7-3.16l4.17-4.15-1.95-2.01-4.34 4.35c-.36-.34-.71-.68-1.05-1.03l4.37-4.37-1.92-1.99c-1.43 1.4-2.87 2.82-4.32 4.28a26.89 26.89 0 0 1-3.1-4.75z"/></svg>
