<svg xmlns="http://www.w3.org/2000/svg" width="34" height="39" viewBox="0 0 34 39"><path fill="#FFF" d="M33.74.31l-1 .31-21.62 6.82-.54.17v23.34c-.1-.04-.2-.08-.32-.11a6.57 6.57 0 0 0-1.92-.28c-.7 0-1.47.08-2.26.26-1.58.35-3 1-4.08 1.8-1.08.82-1.88 1.8-1.88 2.99 0 .59.25 1.15.64 1.55.39.4.9.68 1.47.86 1.15.36 2.6.37 4.19.02 1.58-.35 3-1 4.08-1.81 1.07-.81 1.87-1.8 1.87-2.98 0-.36-.09-.7-.25-1.01V16.77l20.08-6.32V22.2c-.1-.05-.21-.08-.32-.12a6.57 6.57 0 0 0-1.93-.27 10.68 10.68 0 0 0-6.34 2.06c-1.07.81-1.87 1.8-1.87 2.98 0 .6.25 1.15.63 1.56.4.4.9.67 1.48.85 1.15.36 2.6.37 4.18.02 1.58-.34 3-1 4.08-1.8 1.08-.82 1.88-1.8 1.88-2.99 0-.35-.1-.7-.25-1V.3zm-1.54 2.1v2.41l-20.08 6.33V8.74L32.2 2.41zm0 4.03v2.39l-20.08 6.33v-2.4L32.2 6.45z"/></svg>
