<svg xmlns="http://www.w3.org/2000/svg" width="47" height="39" viewBox="0 0 47 39"><path fill="#FFF" fill-rule="nonzero" d="M45.28 20.9h-16.3v-2.98c.47.1.94.17 1.41.17.4 0 1-.14 1.56-.8 1.14-1.37 1.65-4.39 1.18-7.02a11.56 11.56 0 0 0-4.5-7.34c-2-1.5-4.15-2.17-5.4-2.17-1.26 0-3.41.68-5.4 2.17a11.56 11.56 0 0 0-4.5 7.34c-.47 2.64.04 5.65 1.18 7.01.56.67 1.15.81 1.55.81.5 0 .96-.07 1.42-.18v2.98H1.18a.96.96 0 0 0-.96.96v15.34c0 .53.43.96.96.96h44.1c.53 0 .96-.43.96-.96V21.85a.96.96 0 0 0-.96-.96zm-.96 4.79H42.4V22.8h1.92v2.88zm-8.63 0V22.8h4.8v2.88h-4.8zm-1.92 0h-1.91V22.8h1.91v2.88zm-1.91 1.91h5.27v3.84h-5.27V27.6zm8.63 5.75v2.88h-4.8v-2.88h4.8zm-1.44-1.91V27.6h5.27v3.84h-5.27zm-7.9-17.02c-.28 1.22-.67 1.67-.8 1.75-.6 0-1.3-.2-2.04-.4l-.02-.01c.32-2.14 1.97-3.19 3.1-3.66 0 .8-.07 1.6-.24 2.32zM18.98 4.46l.32-.23c.5 1.04 1.1 2.81.43 3.91-.57.93-2.03 1.4-4.27 1.39a9.67 9.67 0 0 1 3.52-5.07zm-3.68 9.96a9.85 9.85 0 0 1-.2-2.99l.48.01c2.92 0 4.86-.77 5.79-2.3 1.21-2.02.2-4.63-.4-5.85.97-.44 1.8-.61 2.25-.61.76 0 2.51.48 4.25 1.78 1.34 1.01 3.03 2.8 3.68 5.68-.53.19-1.22.5-1.91.95a6.24 6.24 0 0 0-2.82 4.24l-.09-.02c-.68-.08-1.88-.12-3.2-.12-1.33 0-2.53.04-3.21.12-.7.09-1.33.28-1.94.46-.67.2-1.3.4-1.88.4-.12-.08-.52-.53-.8-1.75zm4.1 2.94c.25-.06.5-.11.74-.14.6-.07 1.75-.12 2.98-.12 1.24 0 2.39.05 2.99.12.3.03.62.1.95.19v3.48H19.4v-3.53zM5.96 25.7V22.8h4.8v2.88h-4.8zm1.44 1.91v3.84H2.14V27.6H7.4zm3.35 5.75v2.88H5.97v-2.88h4.8zm1.92 0h1.92v2.88h-1.92v-2.88zm1.92-1.91H9.33V27.6h5.27v3.84zm0-5.75h-1.92V22.8h1.92v2.88zM4.05 22.8v2.88H2.14V22.8h1.91zM2.14 33.35h1.91v2.88H2.14v-2.88zm14.38-10.54h13.41v13.42H16.53V22.81zm15.34 10.54h1.91v2.88h-1.91v-2.88zm10.54 2.88v-2.88h1.92v2.88H42.4z"/></svg>