<svg xmlns="http://www.w3.org/2000/svg" width="42" height="42" viewBox="0 0 42 42"><g fill="#FFF" fill-rule="nonzero"><path d="M22.3 23.03a2.7 2.7 0 0 1-4.45.57 2.7 2.7 0 0 1 .58-4.45c.56-.28 1.1-.62 1.56-1.03l-4.88-4.89L20 8.35c.42.47.76 1 1.04 1.57a2.68 2.68 0 0 0 4.44.56 2.7 2.7 0 0 0-.56-4.44A7.26 7.26 0 0 1 23.34 5L28.23.12 33.1 5c.41-.47.75-1 1.03-1.56a2.69 2.69 0 0 1 4.45-.57 2.7 2.7 0 0 1-.57 4.45c-.56.28-1.1.62-1.56 1.03l4.88 4.88-4.88 4.88c-.42-.47-.76-1-1.04-1.56a2.69 2.69 0 0 0-4.44-.57 2.7 2.7 0 0 0 .56 4.45c.56.28 1.1.62 1.56 1.04l-4.88 4.88-4.88-4.88c-.41.47-.75 1-1.03 1.56z"/><path d="M4.96 24.18c-.44-.4-.94-.71-1.47-.98a2.53 2.53 0 0 1-.53-4.17 2.53 2.53 0 0 1 4.17.53c.27.53.59 1.02.98 1.47l4.58-4.59 2.73 2.72-.27.25a4.72 4.72 0 0 0 .13 6.77 4.72 4.72 0 0 0 7.01-.14l2.73 2.72-4.59 4.6c.44.38.94.7 1.47.96a2.53 2.53 0 0 1 .53 4.18 2.53 2.53 0 0 1-4.17-.53 6.82 6.82 0 0 0-.98-1.47l-4.58 4.59-4.6-4.59c.45-.39.95-.7 1.48-.97a2.52 2.52 0 0 0 .53-4.18 2.53 2.53 0 0 0-4.18.53 6.82 6.82 0 0 1-.97 1.47L.37 28.76l4.59-4.58z"/></g></svg>