<svg xmlns="http://www.w3.org/2000/svg" width="35" height="37" viewBox="0 0 35 37"><path fill="#FFF" fill-rule="nonzero" d="M26.44.4l-1.19.27.13.6 1.13 4.95-1.79-.28-.82-.13.5 2.2 1.79.29.82.13.58 2.57 1.58 6.98.58 2.57-1.79-.29-.82-.12.5 2.2 1.79.28.82.13 2.97 13.13.13.6 1.2-.27-.14-.6L26.58 1l-.14-.6zm1.2 21.94a29.1 29.1 0 0 0-2.58-.3l.57 2.5.04.01a26.07 26.07 0 0 1 .8.1l.44.06 1 .15.31.05-.58-2.57zm-2.58-.3l-.5-2.27a7.64 7.64 0 0 0-2.5.04l.53 2.39a8.59 8.59 0 0 1 2.47-.17zm-2.47.16c-.79.17-1.51.47-2.3.91l.57 2.5a7.78 7.78 0 0 1 2.26-1.02h.01l-.54-2.4zm-2.3.91l-.51-2.26c-.6.37-1.31.85-2.19 1.45l.5 2.2a29.1 29.1 0 0 1 2.2-1.39zm-2.2 1.4l-1.49 1.01-.68.47.58 2.54 1.39-.96c.27-.2.53-.37.78-.53l-.58-2.54zm-2.17 1.48l-.5-2.2c-.82.56-1.54 1.02-2.2 1.39l.52 2.25c.6-.36 1.31-.84 2.18-1.44zm-2.18 1.44c-.94.58-1.62.9-2.28 1.05l.54 2.39a8.45 8.45 0 0 0 2.3-.93l-.56-2.5zm-2.28 1.05l-.54-2.39c-.79.18-1.57.22-2.47.17l.51 2.25c1.1.12 1.85.12 2.5-.03zm-2.5.03c-.7-.07-1.55-.2-2.59-.36l.58 2.57s1.23.22 2.58.31l-.57-2.52zm-2.59-.36l-.5-2.2-1.78-.28c-.3-.05-.56-.1-.82-.13l.5 2.2 1.78.28.82.13zm-.5-2.2c.99.15 1.83.26 2.58.3l-.57-2.51c-.7-.08-1.55-.2-2.59-.36l.58 2.57zm-.58-2.57l-.5-2.2c-.55-.1-1.13-.19-1.78-.29l-.82-.13.5 2.2c.55.1 1.13.18 1.78.29l.82.13zm-.5-2.2c.99.14 1.83.26 2.58.3l-.57-2.52c-.7-.07-1.55-.2-2.59-.36l.58 2.57zm-.58-2.58l-.5-2.2-1.78-.28c-.3-.05-.56-.1-.82-.13l.5 2.2 1.78.28c.3.05.56.1.82.13zm-.5-2.2c.99.15 1.83.26 2.58.3l-.57-2.51c-.7-.08-1.55-.2-2.59-.36l.58 2.57zm-.58-2.57l-.5-2.2c-.55-.1-1.13-.19-1.78-.29l-.82-.13.5 2.2c.55.1 1.13.18 1.78.29l.82.13zm-.5-2.2c.99.14 1.83.26 2.58.3l-.57-2.52h-.03l-.2-.02-.19-.02a103.14 103.14 0 0 1-2.17-.31l.58 2.56zm2.58.3l.51 2.26c1.1.11 1.85.11 2.5-.04l-.54-2.38c-.79.17-1.57.21-2.47.16zm2.47-.16a8.58 8.58 0 0 0 2.3-.92l-.56-2.52c-.94.58-1.62.9-2.28 1.05l.54 2.39zm-.53-2.4l-.01.01zm2.84 1.48l.5 2.26c.6-.37 1.32-.85 2.19-1.44l-.5-2.2c-.82.55-1.54 1.02-2.2 1.38zm2.2-1.39l1.48-1.02.68-.47-.58-2.57-1.49 1.02-.68.47.58 2.57zm2.16-1.49l.5 2.2c.83-.55 1.54-1.02 2.2-1.38l-.51-2.26c-.6.37-1.32.85-2.19 1.44zm2.19-1.44c.94-.58 1.62-.9 2.27-1.05l-.54-2.38c-.8.18-1.51.48-2.3.91l.57 2.52zm2.27-1.05l.54 2.4a8.58 8.58 0 0 1 2.47-.17l-.5-2.26a7.64 7.64 0 0 0-2.5.03h-.01zm2.5-.03c.7.07 1.55.2 2.6.36l-.59-2.57s-1.23-.22-2.58-.3l.57 2.51zm.51 2.26l.57 2.51c.7.08 1.55.2 2.6.37l-.59-2.57a29.1 29.1 0 0 0-2.58-.31zm3.16 2.88l.5 2.2 1.79.28.81.13-.5-2.2-1.78-.29-.82-.12zm.5 2.2c-.98-.15-1.83-.26-2.58-.3l.57 2.5c.7.08 1.55.2 2.6.37l-.59-2.57zm.58 2.57l.5 2.2 1.79.29.82.13-.5-2.21-1.79-.28-.82-.13zm.5 2.2c-.98-.15-1.83-.26-2.58-.3l.57 2.51c.7.08 1.55.2 2.6.37l-.59-2.57zm-2.58-.3l-.5-2.26a7.65 7.65 0 0 0-2.5.03l.53 2.4a8.58 8.58 0 0 1 2.47-.17zm-2.47.16c-.79.18-1.51.48-2.3.92l.57 2.51c.94-.57 1.62-.9 2.27-1.04l-.54-2.39zm-2.3.92l-.51-2.26c-.6.37-1.31.85-2.19 1.44l.5 2.2c.83-.55 1.54-1.02 2.2-1.38zM17 19.73l-1.49 1.02-.68.47.58 2.57 1.5-1.03.67-.46-.58-2.57zm-2.17 1.49l-.5-2.2c-.82.55-1.54 1.02-2.2 1.38l.52 2.26c.6-.37 1.31-.85 2.18-1.44zm-2.18 1.44c-.94.57-1.62.9-2.28 1.04l.54 2.39a8.58 8.58 0 0 0 2.3-.91l-.56-2.52zm-2.28 1.04l-.54-2.38c-.79.17-1.57.21-2.47.16l.51 2.26c1.1.11 1.85.11 2.5-.04zm-.54-2.38a8.58 8.58 0 0 0 2.3-.92l-.56-2.52c-.94.58-1.62.9-2.28 1.05l.54 2.39zm-.54-2.4l-.54-2.38c-.79.18-1.57.22-2.47.17l.51 2.25c1.1.12 1.85.12 2.5-.03zm-.54-2.38a8.58 8.58 0 0 0 2.3-.91l-.56-2.52c-.94.57-1.62.9-2.28 1.04l.54 2.4zm2.3-.91l.52 2.25c.6-.36 1.31-.84 2.18-1.44l-.5-2.2c-.82.56-1.54 1.02-2.2 1.39zm2.2-1.4c.46-.3.94-.64 1.5-1.02l.67-.46-.58-2.57c-.46.3-.94.64-1.49 1.02l-.68.47.58 2.57zm2.17-1.48l.5 2.2c.83-.56 1.54-1.03 2.2-1.39l-.51-2.26c-.6.37-1.31.85-2.19 1.45zm2.19-1.45c.94-.57 1.62-.9 2.27-1.04l-.54-2.39c-.79.18-1.51.48-2.3.92l.57 2.51zm2.27-1.04l.54 2.39a8.58 8.58 0 0 1 2.47-.17l-.5-2.26a7.64 7.64 0 0 0-2.5.04zm.54 2.39c-.79.18-1.51.48-2.3.91l.57 2.52c.94-.58 1.62-.9 2.27-1.05l-.54-2.38zm-4.5 2.3l-1.49 1.02-.68.47.58 2.57 1.5-1.02.67-.47-.58-2.57z"/></svg>