<svg xmlns="http://www.w3.org/2000/svg" width="40" height="39" viewBox="0 0 40 39"><path fill="#FFF" fill-rule="nonzero" d="M20.19.9l-.03.04c-.16.29-.37.77-.56 1.37-.4 1.18-.8 2.82-1.14 4.45a119.24 119.24 0 0 0-1.18 6.57c0 .12.16.37.67.62.53.26 1.34.45 2.24.45.9 0 1.7-.19 2.24-.45.51-.25.66-.5.67-.62l-.02-.09a54.57 54.57 0 0 0-.3-1.94c-.22-1.25-.52-2.9-.87-4.54a44.7 44.7 0 0 0-1.13-4.45c-.2-.6-.4-1.08-.57-1.37L20.2.9zM6.03 2.5C2.7 5 .57 8.36.57 12.07c0 2.6 1 5.02 2.74 7.1l2.27-6.56a8.77 8.77 0 0 1-1.48-4.8c0-1.93.75-3.72 1.93-5.31zm28.31 0a8.93 8.93 0 0 1 1.93 5.3c0 1.72-.53 3.35-1.48 4.81l2.28 6.55a11.02 11.02 0 0 0 2.73-7.1c0-3.7-2.13-7.06-5.46-9.56zM16.7 8.85c-3.03.77-5.18 2.67-6.75 5.88C7.86 19 6.93 25.66 6.9 34.81a26.68 26.68 0 0 0 11.73 3.41c-.03-3.2-.58-8.25-.98-11.53-5.6-.5-8.03-2.47-8.03-2.47s.31-2.32.53-3.35a30.86 30.86 0 0 0 10.04 1.61 30.9 30.9 0 0 0 10.03-1.6c.22 1.02.54 3.34.54 3.34s-2.35 2-8.03 2.48c-.4 3.28-.96 8.33-.98 11.52a26.68 26.68 0 0 0 11.72-3.41c-.02-9.15-.95-15.81-3.04-20.08-1.57-3.21-3.71-5.11-6.75-5.88l.39 2.15.09.05c1.05.59 1.81 1.47 1.97 2.54l.5 3.46-.07.17c-.44 1.09-1.57 1.7-2.77 2.15-1.2.45-2.53.69-3.6.7h-.01a11.2 11.2 0 0 1-3.6-.7c-1.2-.45-2.33-1.06-2.77-2.15l-.07-.17.5-3.46c.16-1.07.93-1.95 1.98-2.54l.08-.05.39-2.15zm-9.42 2.94L3.8 21.8l2.49 1.15c.5-3.52 1.3-6.45 2.46-8.8.28-.57.58-1.1.9-1.61l-2.38-.75zm25.83 0l-2.38.75c.33.5.63 1.04.9 1.6a29.85 29.85 0 0 1 2.47 8.81l2.48-1.15-3.47-10zm-17.43 1.6c-.05.14-.09.27-.1.4l-.45 3.04c.24.41.97.94 1.93 1.3 1.04.38 2.28.6 3.14.6.86 0 2.1-.22 3.14-.6a4.02 4.02 0 0 0 1.93-1.3l-.45-3.05a1.55 1.55 0 0 0-.1-.38l-.29.1c-.08.75-.7 1.3-1.41 1.65-.77.37-1.75.58-2.82.58-1.08 0-2.06-.2-2.82-.58-.72-.35-1.33-.9-1.42-1.66l-.28-.1z"/></svg>