<svg xmlns="http://www.w3.org/2000/svg" width="38" height="38" viewBox="0 0 38 38"><path fill="#FFF" fill-rule="nonzero" d="M18.83.9a18.55 18.55 0 1 0 0 37.09 18.55 18.55 0 0 0 0-37.1zm0 2.92c7.16 0 13.13 4.84 14.98 11.41h-3.1a9.55 9.55 0 0 0-8.34-4.92h-6.99c-3.6 0-6.7 2-8.34 4.92H4.1c-.09 0-.16.04-.25.05A15.56 15.56 0 0 1 18.83 3.82zm-3.42 8.59h6.84a6.83 6.83 0 0 1 6.83 6.83v.11l-.18.38-.39.73a20.2 20.2 0 0 1-1.38 2.24c-1.52 2.1-3.15 3.38-4.88 3.38H15.4c-1.73 0-3.36-1.28-4.88-3.38a20.2 20.2 0 0 1-1.95-3.35v-.1a6.83 6.83 0 0 1 6.83-6.84zm0 .98c-3.2 0-5.8 2.58-5.84 5.78l.06.13a19.74 19.74 0 0 0 1.7 2.83c1.35 1.86 2.75 2.97 4.08 2.97h6.84c1.33 0 2.73-1.1 4.08-2.97a19.14 19.14 0 0 0 1.7-2.83l.06-.13a5.85 5.85 0 0 0-5.84-5.78H15.4zm3.42 1.67a4.26 4.26 0 1 1 0 8.52 4.26 4.26 0 0 1 0-8.52zm0 .98a3.28 3.28 0 1 0 0 6.56 3.28 3.28 0 0 0 0-6.56zM3.4 21.44c.23.05.44.14.69.14H8.2a7.83 7.83 0 0 0 1.4 3.57l-2.88 4.07a15.45 15.45 0 0 1-3.32-7.78zm30.82.06a15.43 15.43 0 0 1-3.34 7.73l-2.82-4a7.82 7.82 0 0 0 1.48-3.65h4.32c.13 0 .24-.06.36-.08zm-20.78 6.48c.8.28 1.66.46 2.56.46h5.75c.86 0 1.66-.17 2.44-.43l3.17 4.49a15.55 15.55 0 0 1-17.1-.02l3.18-4.5z"/></svg>