<svg xmlns="http://www.w3.org/2000/svg" width="37" height="37" viewBox="0 0 37 37"><path fill="#FFF" fill-rule="nonzero" d="M17.93.77a17.7 17.7 0 0 0-11.4 4.68l8.27 8.26C17.4 10.77 18.57 6.4 17.93.77zm1.5 0c.63 5.89-.65 10.71-3.57 14l2.7 2.7L30.58 5.45A17.7 17.7 0 0 0 19.43.78zM5.48 6.5A17.7 17.7 0 0 0 .8 17.9c5.62.63 10-.55 12.95-3.13L5.48 6.5zm26.15 0L19.61 18.52l2.7 2.7c2.8-2.48 6.7-3.78 11.42-3.72.83 0 1.7.06 2.58.15A17.7 17.7 0 0 0 31.63 6.5zM14.8 15.82c-3.28 2.93-8.1 4.2-13.99 3.57a17.7 17.7 0 0 0 4.67 11.16l12.03-12.03-2.7-2.7zm18.6 3.16c-4.24 0-7.62 1.18-10.03 3.3l8.26 8.27a17.7 17.7 0 0 0 4.69-11.4 25.64 25.64 0 0 0-2.93-.17zm-14.84.6L6.54 31.6a17.7 17.7 0 0 0 11.15 4.67c-.63-5.88.65-10.7 3.57-14l-2.7-2.7zm3.76 3.75c-2.59 2.95-3.77 7.33-3.13 12.95a17.7 17.7 0 0 0 11.4-4.68l-8.27-8.27z"/></svg>