<svg xmlns="http://www.w3.org/2000/svg" width="41" height="41" viewBox="0 0 41 41"><path fill="#FFF" fill-rule="nonzero" d="M29.38.41c-.17-.04-1.82 2.31-2.71 3.23-1.58-.7-4.59-2.27-4.72-2.12-.07.07 1.56 2.67 2.83 5.73l-4.37 1.07-6.54-3.9-3.71 4.32C7.85 5.9 5.3 3.64 5.2 3.69c-.17.08.12 2.95.05 4.22C3.6 8.41.3 9.2.3 9.38c0 .11 3.53 1.2 6.76 2.95l-4.4 5.1 1.95 15.7 12.54-3.37L19.82 32c-3.26 1.06-6.22 1.57-6.24 1.68-.02.22 3.55 1.58 5.32 2.38-.1 1.43-.85 4.59-.68 4.7.1.07 3.25-2.05 6.24-4.86l5.57 4.69h2.4l-6.87-5.77a20 20 0 0 0 3.48-4.5c.33.23.93 1.49 1.15 1.45.33-.05 1.93-7.09 1.67-7.3-.39-.28-7.03 2.42-7 2.58.02.14 1.42.77 2.06 1.24-1.28 1.3-3.31 2.33-5.41 3.12l-3.98-3.35-11.61 3.12-1.65-13.26 4.14-4.8a11.3 11.3 0 0 1 2.99 2.57c-.62.33-1.93.72-1.96.85-.04.13 5.48 3.3 5.85 3.08.26-.14-.32-6.53-.6-6.61-.2-.06-.87.98-1.2 1.15a17.3 17.3 0 0 0-2.37-4.18l3.08-3.57 5.96 3.56 5.18-1.27c.6 1.68 1 3.4.9 4.84-.69-.15-1.93-.71-2.04-.64-.11.08 2 6.08 2.42 6.16.3.06 4.02-5.16 3.86-5.4-.1-.17-1.3.17-1.65.1.66-1.72.93-3.99 1-6.16l4.53-1.1 6.31 4.53v-1.9l-5.99-4.3L29.85 6c-.02-3.05-.37-5.57-.47-5.6z"/></svg>